<?xml version="1.0" standalone="no"?>
<!DOCTYPE svg PUBLIC "-//W3C//DTD SVG 20010904//EN"
 "http://www.w3.org/TR/2001/REC-SVG-20010904/DTD/svg10.dtd">
<svg version="1.0" xmlns="http://www.w3.org/2000/svg"
 width="700.000000pt" height="700.000000pt" viewBox="0 0 700.000000 700.000000"
 preserveAspectRatio="xMidYMid meet">
<metadata>
Created by potrace 1.11, written by Peter Selinger 2001-2013
</metadata>
<g transform="translate(0.000000,700.000000) scale(0.100000,-0.100000)"
fill="#000000" stroke="none">
<path d="M3335 6765 c-88 -124 -211 -296 -272 -383 -62 -86 -119 -165 -125
-175 -49 -71 -161 -223 -168 -227 -5 -3 -398 -5 -874 -5 -571 0 -866 -3 -867
-10 -1 -7 -9 -2340 -9 -2470 1 -11 1 -569 2 -1240 2 -671 6 -1222 9 -1225 4
-3 397 -5 874 -4 l866 0 40 -55 c23 -31 130 -182 240 -336 109 -154 205 -289
213 -300 8 -11 63 -87 121 -170 58 -82 109 -151 113 -152 4 -1 14 8 23 20 42
58 448 629 556 781 67 94 128 180 136 191 14 20 26 20 886 20 767 0 871 2 872
15 1 11 8 2322 8 2465 0 367 -7 2453 -8 2460 -1 7 -299 10 -873 10 l-871 0
-86 121 c-334 472 -469 662 -499 699 -4 6 -36 52 -72 103 -35 50 -66 92 -69
92 -3 0 -78 -102 -166 -225z"/>
</g>
</svg>
