<svg xmlns="http://www.w3.org/2000/svg" viewBox="0 0 88.8 67.1">
  <path d="M75.5 9.6C67.2 3.4 56.1 0 44.4 0S21.6 3.4 13.2 9.6C4.7 16 0 24.5 0 33.5c0 6.7 2.6 13.2 7.5 18.7-1.1 2.3-2.9 4.2-4.9 5-1.5.6-2.4 1.7-2.5 3C0 61.6.7 63 2.2 64c3.1 2 9.8 2.7 18.6-2 7.1 3.3 15.2 5.1 23.6 5.1 11.8 0 22.8-3.4 31.2-9.6 8.5-6.3 13.2-14.8 13.2-23.9S84.1 16 75.5 9.6zM44.4 63c-8.2 0-16-1.8-22.7-5.1l-1-.5-.9.5c-8 4.5-13.3 3.7-15.1 2.8 3.2-1.5 5.8-4.6 7.1-8.2l.4-1.2-.9-.9C6.5 45.4 4 39.6 4 33.5 4 17.2 22.1 4 44.3 4s40.3 13.2 40.3 29.5c.1 16.3-18 29.5-40.2 29.5z"/>
  <path d="M42.1 15.5v-2.7h4.8v2.8c4.1.9 6.2 3.9 6.2 8.9v1.1h-5.5V24c0-2.5-1.1-3.7-3-3.7s-3 .9-3 3.7c0 7.6 11.2 8 11.2 18.6 0 5-2.1 8.3-6.2 8.9v2.8h-4.7v-2.8c-4.1-.9-6.2-4.1-6.2-8.9v-2.5h5.7v2.7c0 2.5 1.1 3.7 3 3.7s3-.9 3-3.7c0-7.6-11.2-8-11.2-18.6 0-4.8 2-7.8 5.9-8.7z"/>
</svg>
