<svg xmlns:dc="http://purl.org/dc/elements/1.1/" xmlns:cc="http://creativecommons.org/ns#" xmlns:rdf="http://www.w3.org/1999/02/22-rdf-syntax-ns#" xmlns:svg="http://www.w3.org/2000/svg" xmlns="http://www.w3.org/2000/svg" xmlns:sodipodi="http://sodipodi.sourceforge.net/DTD/sodipodi-0.dtd" xmlns:inkscape="http://www.inkscape.org/namespaces/inkscape" version="1.1" x="0px" y="0px" viewBox="0 0 100 100">
  <g transform="translate(0,-952.36218)">
    <path d="m 9.0000001,973.36216 c -2.16415,0 -4,1.83585 -4,4 l 0,50.00004 c 0,2.1641 1.83585,4 4,4 l 81.9999999,0 c 2.16415,0 4,-1.8359 4,-4 l 0,-50.00004 c 0,-2.16415 -1.83585,-4 -4,-4 l -81.9999999,0 z m 7.9062499,6 66.1875,0 L 50,1004.5809 16.90625,979.36216 z M 11,982.39341 48.1875,1010.7372 a 3.0003,3.0003 0 0 0 3.625,0 L 89,982.39341 l 0,42.96879 -78,0 0,-42.96879 z"/>
  </g>
</svg>