<svg xmlns:rdf="http://www.w3.org/1999/02/22-rdf-syntax-ns#" xmlns="http://www.w3.org/2000/svg" viewBox="0 0 256 256" version="1.1" xmlns:cc="http://creativecommons.org/ns#" xmlns:dc="http://purl.org/dc/elements/1.1/" preserveAspectRatio="xMidYMid">
 <g transform="matrix(1.846 0 0 1.846 -108.3 -108.4)">
  <g>
   <g>
    <path d="m102.8 121.7v15.12h25.01c-1.008 6.489-7.56 19.03-25.01 19.03-15.06 0-27.34-12.47-27.34-27.85 0-15.37 12.28-27.85 27.34-27.85 8.568 0 14.3 3.654 17.58 6.804l11.97-11.53c-7.7-7.12-17.7-11.47-29.6-11.47-24.38 0-44.1 19.72-44.1 44.1s19.72 44.1 44.1 44.1c25.45 0 42.34-17.89 42.34-43.09 0-2.898-0.315-5.103-0.693-7.308h-41.64z"/>
   </g>
   <path d="m197.3 121.7h-12.6v-12.6h-12.6v12.6h-12.6v12.6h12.6v12.6h12.6v-12.6h12.6"/>
  </g>
 </g>
</svg>
