<svg xmlns:rdf="http://www.w3.org/1999/02/22-rdf-syntax-ns#" xmlns="http://www.w3.org/2000/svg" viewBox="0 0 256 256" version="1.1" xmlns:cc="http://creativecommons.org/ns#" xmlns:dc="http://purl.org/dc/elements/1.1/" preserveAspectRatio="xMidYMid">
 <g transform="matrix(2.76 0 0 2.76 -1102 -396.7)">
  <path d="m410.6 143.8c6.146 0 11.14 4.993 11.14 11.14 0 6.151-4.992 11.15-11.14 11.15-6.158 0-11.14-4.995-11.14-11.15 0-6.147 4.986-11.14 11.14-11.14zm-9.613 30.74h19.22v61.84h-19.22v-61.84z"/>
  <path d="m432.3 174.6h18.44v8.448h0.2556c2.564-4.861 8.834-9.987 18.18-9.987 19.46 0 23.05 12.81 23.05 29.46v33.92h-19.2v-30.07c0-7.174-0.1323-16.4-9.987-16.4-10 0-11.53 7.812-11.53 15.88v30.59h-19.2v-61.84"/>
 </g>
</svg>
