<svg xmlns:rdf="http://www.w3.org/1999/02/22-rdf-syntax-ns#" xmlns="http://www.w3.org/2000/svg" version="1.1" preserveAspectRatio="xMidYMid" xmlns:cc="http://creativecommons.org/ns#" xmlns:dc="http://purl.org/dc/elements/1.1/" viewBox="0 0 256 256">
 <g>
  <path d="m0 128c0 52.4 31.52 97.4 76.62 117.2-0.36-8.9-0.06-19.6 2.23-29.4 2.46-10.3 16.47-69.7 16.47-69.7s-4.09-8.2-4.09-20.3c0-18.9 10.97-33.09 24.67-33.09 11.7 0 17.3 8.79 17.3 19.19 0 11.7-7.5 29.2-11.3 45.5-3.2 13.5 6.8 24.6 20.2 24.6 24.2 0 40.6-31.1 40.6-68 0-28.1-18.9-49.1-53.3-49.1-38.82 0-63.01 28.96-63.01 61.3 0 11.2 3.29 19 8.44 25.1 2.36 2.8 2.69 3.9 1.84 7.1-0.62 2.4-2.03 8.1-2.61 10.3-0.85 3.3-3.48 4.4-6.41 3.2-17.89-7.3-26.21-26.9-26.21-48.9 0-36.35 30.66-79.95 91.46-79.95 48.9 0 81.1 35.37 81.1 73.35 0 50.2-28 87.7-69.1 87.7-13.8 0-26.8-7.5-31.3-15.9 0 0-7.4 29.4-9 35.1-2.7 9.9-8.02 19.8-12.87 27.5 11.47 3.4 23.67 5.2 36.27 5.2 70.7 0 128-57.3 128-128 0-70.69-57.3-128-128-128-70.69 0-128 57.31-128 128z"/>
 </g>
</svg>
