<?xml version="1.0" encoding="UTF-8" standalone="no"?>
<svg
   xmlns:dc="http://purl.org/dc/elements/1.1/"
   xmlns:cc="http://creativecommons.org/ns#"
   xmlns:rdf="http://www.w3.org/1999/02/22-rdf-syntax-ns#"
   xmlns:svg="http://www.w3.org/2000/svg"
   xmlns="http://www.w3.org/2000/svg"
   xmlns:sodipodi="http://sodipodi.sourceforge.net/DTD/sodipodi-0.dtd"
   xmlns:inkscape="http://www.inkscape.org/namespaces/inkscape"
   fill="#000000"
   version="1.1"
   x="0px"
   y="0px"
   viewBox="0 0 100 100"
   enable-background="new 0 0 100 100"
   xml:space="preserve"
   id="svg2"
   inkscape:version="0.91 r13725"
   sodipodi:docname="place.svg"><metadata
     id="metadata10"><rdf:RDF><cc:Work
         rdf:about=""><dc:format>image/svg+xml</dc:format><dc:type
           rdf:resource="http://purl.org/dc/dcmitype/StillImage" /><dc:title></dc:title></cc:Work></rdf:RDF></metadata><defs
     id="defs8" /><sodipodi:namedview
     pagecolor="#ffffff"
     bordercolor="#666666"
     borderopacity="1"
     objecttolerance="10"
     gridtolerance="10"
     guidetolerance="10"
     inkscape:pageopacity="0"
     inkscape:pageshadow="2"
     inkscape:window-width="1078"
     inkscape:window-height="869"
     id="namedview6"
     showgrid="false"
     inkscape:zoom="4.72"
     inkscape:cx="45.238256"
     inkscape:cy="54.408025"
     inkscape:window-x="262"
     inkscape:window-y="63"
     inkscape:window-maximized="0"
     inkscape:current-layer="svg2" /><path
     d="m 50,73.90625 c 0,0 23.90625,-18 23.90625,-40.78125 C 73.90625,19.90625 63.21875,9.21875 50,9.21875 36.78125,9.21875 26.09375,19.90625 26.09375,33.125 26.09375,55.90625 50,73.90625 50,73.90625 Z M 34.53125,33.125 c 0,-8.4375 7.03125,-15.46875 15.46875,-15.46875 8.4375,0 15.46875,7.03125 15.46875,15.46875 0,8.4375 -7.03125,15.46875 -15.46875,15.46875 -8.4375,0 -15.46875,-7.03125 -15.46875,-15.46875 z M 95,73.90625 c 0,11.109375 -22.640625,16.875 -45,16.875 -22.359375,0 -45,-5.765625 -45,-16.875 0,-6.1875 7.3125,-11.25 20.53125,-14.34375 3.699844,-0.673594 4.80375,4.521094 1.265625,5.484375 C 15.6875,67.578125 10.625,71.375 10.625,73.90625 c 0,4.640625 15.328125,11.25 39.375,11.25 24.046875,0 39.375,-6.609375 39.375,-11.25 0,-2.53125 -5.0625,-6.328125 -16.03125,-8.859375 C 70.078437,64.452031 70.528437,58.818594 74.609375,59.5625 87.6875,62.65625 95,67.71875 95,73.90625 Z"
     id="path4"
     inkscape:connector-curvature="0" /></svg>