<svg xmlns="http://www.w3.org/2000/svg" viewBox="0 0 84 84">
  <path d="M57 26.3c-.4-.2-.9-.1-1.2.2L41.2 38.6c-.5.4-1.1.5-1.6.2-.5-.2-.9-.8-.9-1.4V27.3c0-.4-.3-.8-.6-1-.4-.2-.9-.1-1.2.2L19.3 41.2c-.3.2-.4.5-.4.9 0 .3.1.6.4.9L37 57.7c.3.3.8.3 1.2.2.4-.2.6-.6.6-1V46.6c0-.6.3-1.1.9-1.4.2-.1.4-.1.6-.1.3 0 .7.1 1 .3l14.6 12.1c.3.3.8.3 1.2.2.4-.2.6-.6.6-1V27.3c0-.4-.3-.8-.7-1z"/>
  <path d="M42 0C18.8 0 0 18.8 0 42s18.8 42 42 42 42-18.8 42-42c.1-23.2-18.8-42-42-42zm18.7 56.7c0 1.6-.9 3.1-2.4 3.7-.5.3-1.2.4-1.8.4-1 0-1.9-.3-2.6-1l-12.1-10v6.9c0 1.6-.9 3.1-2.4 3.7-1.4.7-3.2.4-4.4-.6L17.3 45.2c-.9-.8-1.5-1.9-1.5-3.2 0-1.2.5-2.4 1.5-3.2L35 24.2c1.2-1 3-1.2 4.4-.6 1.4.7 2.4 2.1 2.4 3.7v6.9l12.1-10.1c1.2-1 3-1.2 4.4-.6 1.4.7 2.4 2.1 2.4 3.7v29.5z"/>
</svg>
