<svg xmlns:rdf="http://www.w3.org/1999/02/22-rdf-syntax-ns#" xmlns="http://www.w3.org/2000/svg" xml:space="preserve" height="66" width="73" version="1.1" y="0px" x="0px" xmlns:cc="http://creativecommons.org/ns#" xmlns:dc="http://purl.org/dc/elements/1.1/" viewBox="0 0 73 66"><g transform="matrix(-1 0 0 -1 81.43 78)"><path d="m77.1 78.2"/>
<line y2="78.2" y1="78.2" x2="78.1" x1="78.1" /><path d="m14.6 50.9h18.6l-0.8 3.5c-0.8 3.5-1.2 10-0.3 14.5s5.1 5.5 6.7 6.5 4-1.8 4-1.8 0.1-1-0.2-8.1 14.8-21.4 14.8-21.4l0.4-0.3s0.5-25.5 0-27.2c-0.6-1.8-5.3-3-5.3-3h-32.6s-3.3 1.3-5 3.6c-1.8 2.3-0.7 5.2-0.7 5.2s-1.9 1.2-2.8 3.1 0 5.8 0 5.8-1.8 1.4-2.3 3.2 0.8 4.9 0.8 4.9-1.1 1.3-1.6 5.2 6.3 6.3 6.3 6.3z"/><path d="m66 11.8h13c1.5 0 2.6 1.5 2.6 3.4v28c0 1.9-1.2 3.4-2.6 3.4h-13c-1.5 0-2.6-1.5-2.6-3.4v-28c0-1.8 1.2-3.4 2.6-3.4z"/></g></svg>
