<svg xmlns:rdf="http://www.w3.org/1999/02/22-rdf-syntax-ns#" xmlns="http://www.w3.org/2000/svg" version="1.1" preserveAspectRatio="xMidYMid" xmlns:cc="http://creativecommons.org/ns#" xmlns:dc="http://purl.org/dc/elements/1.1/" viewBox="0 0 256 256">
 <g transform="translate(-.000023 23.16)">
  <path d="m256 25.45c-9.419 4.177-19.54 7-30.17 8.27 10.9-6.5 19.2-16.79 23.1-29.06-10.1 6.02-21.4 10.39-33.3 12.75-9.6-10.21-23.3-16.59-38.4-16.59-29.01 0-52.52 23.52-52.52 52.52 0 4.116 0.4654 8.125 1.361 11.97-43.57-2.19-82.27-23.1-108.2-54.87-4.521 7.757-7.111 16.78-7.111 26.4 0 18.22 9.273 34.3 23.37 43.72-8.61-0.2725-16.71-2.635-23.79-6.569-0.0037 0.2191-0.0037 0.4392-0.0037 0.6602 0 25.45 18.1 46.68 42.13 51.5-4.408 1.2-9.047 1.842-13.84 1.842-3.384 0-6.675-0.3287-9.881-0.942 6.683 20.87 26.08 36.05 49.06 36.48-17.97 14.09-40.62 22.48-65.23 22.48-4.239 0-8.42-0.2481-12.53-0.7332 23.24 14.9 50.85 23.6 80.51 23.6 96.61 0 149.4-80.03 149.4-149.4 0-2.277-0.0506-4.542-0.1517-6.794 10.4-7.52 19.3-16.77 26.3-27.3"/>
 </g>
</svg>
