<svg xmlns="http://www.w3.org/2000/svg" viewBox="0 0 68.201 87.008">
  <path d="M67.364 81.54c-3.205-4.103-8.266-18.747-3.473-28.334 3.7-7.394 4.28-18.25 4.3-18.707.05-.93-.3-1.84-.95-2.49-6.81-6.81-4.17-22.24-2.58-27.61.3-1 .11-2.16-.51-3-.62-.82-1.6-1.4-2.64-1.4h-8.93c-1.81 0-3.29 1.56-3.29 3.37 0 5.706-8.58 15.84-15.19 22.143C27.48 19.21 18.9 9.053 18.9 3.35 18.9 1.538 17.43 0 15.61 0H7.24C6.23 0 5.272.557 4.648 1.36c-.623.802-.84 1.89-.587 2.874C5.46 9.69 7.62 25.334.97 31.99c-.656.655-1.006 1.57-.96 2.498.024.458.6 11.318 4.3 18.712 4.828 9.67-.36 24.48-3.56 28.437-.452.547-.73 1.248-.747 2.01-.003.075-.003.15 0 .222.03.72.293 1.38.715 1.91.127.16.27.3.42.43.574.5 1.32.79 2.136.79 0 0 .005-.01.008-.01h61.625c.003 0 .004.01.005.01 1.818 0 3.29-1.47 3.29-3.29-.002-.84-.32-1.61-.838-2.19zm-31.49-16.535c-.54.348-1.158.522-1.776.522-.617 0-1.235-.174-1.777-.522-2.38-1.533-14.3-9.586-14.3-17.55 0-5.437 4.35-9.86 9.69-9.86 2.45 0 4.69.93 6.4 2.464 1.71-1.54 3.95-2.47 6.4-2.47 5.34 0 9.69 4.42 9.69 9.86 0 7.96-11.92 16.02-14.31 17.55z"/>
</svg>
